<svg xmlns="http://www.w3.org/2000/svg" style="display: none;">
	<defs>
		<symbol id="tf-far-envelope-open" viewBox="0 0 32 32">
			<path
				d="M30.94 10.31Q32 11.2 32 12.63V29q0 1.25-.87 2.13T29 32H3q-1.25 0-2.12-.87T0 29V12.56q0-1.37 1.13-2.31 2.5-2.06 8.43-6.75.2-.19.75-.66l.94-.78 1.03-.75 1.2-.68 1.21-.44L16-.01l1.32.2 1.25.43 1.18.72 1 .75.94.75.75.66q6.25 4.94 8.5 6.81zM29 28.62V12.76q0-.13-.13-.25-5.06-4.13-8.3-6.69-.07 0-.91-.72t-1.29-1.03-1.15-.69T16 3t-1.22.37-1.15.66-1.29 1.03-.9.75Q8.5 8.12 3.13 12.5q-.13.06-.13.25v15.87q0 .38.38.38h25.25q.37 0 .37-.38zm-2-11.75q.5.63-.13 1.07-3.43 2.81-4.43 3.56-.2.19-.75.66l-.94.78-1.03.75-1.19.69-1.22.43-1.31.2q-.75 0-1.53-.23t-1.57-.72-1.21-.8-1.25-.98-.88-.78q-1-.75-4.44-3.56-.62-.44-.12-1.07l.94-1.12q.5-.56 1.06-.13 3.44 2.75 4.44 3.57.06 0 .9.72t1.28 1.03 1.16.69T16 22q.37 0 .78-.16t.78-.37.84-.56.82-.6.75-.62.6-.5q1-.82 4.43-3.57.56-.43 1.06.13z"
			></path>
		</symbol>

		<symbol id="tf-fa-up-right-from-square" viewBox="0 0 512 512">
			<path
				d="M352 0c-12.9 0-24.6 7.8-29.6 19.8s-2.2 25.7 6.9 34.9L370.7 96 201.4 265.4c-12.5 12.5-12.5 32.8 0 45.3s32.8 12.5 45.3 0L416 141.3l41.4 41.4c9.2 9.2 22.9 11.9 34.9 6.9s19.8-16.6 19.8-29.6l0-128c0-17.7-14.3-32-32-32L352 0zM80 32C35.8 32 0 67.8 0 112L0 432c0 44.2 35.8 80 80 80l320 0c44.2 0 80-35.8 80-80l0-112c0-17.7-14.3-32-32-32s-32 14.3-32 32l0 112c0 8.8-7.2 16-16 16L80 448c-8.8 0-16-7.2-16-16l0-320c0-8.8 7.2-16 16-16l112 0c17.7 0 32-14.3 32-32s-14.3-32-32-32L80 32z"
			></path>
		</symbol>
	</defs>
</svg>