<?xml version="1.0" encoding="UTF-8"?>
<svg id="Layer_2" data-name="Layer 2" xmlns="http://www.w3.org/2000/svg" viewBox="0 0 512 512">
  <defs>
    <style>
      .cls-1 {
        fill: #ff00b2;
      }

      .cls-2 {
        fill: #e4ff46;
      }
    </style>
  </defs>
  <path class="cls-1" d="M246.13,383c-29.31,0-53.49-1.52-72.53-4.57-19.04-3.04-33.2-9.73-42.47-20.07-9.27-10.33-13.91-26.41-13.91-48.21s4.35-38.55,13.06-48.95c8.71-10.41,22.51-17.17,41.41-20.28,18.9-3.11,43.71-4.67,74.44-4.67,24.92,0,45.8.57,62.65,1.7,16.85,1.13,31.92,3.12,45.24,5.95-.29-18.83-1.56-33.66-3.82-44.49-2.27-10.83-6.52-18.87-12.74-24.1-6.23-5.24-15.33-8.6-27.29-10.09-11.97-1.49-27.86-2.23-47.68-2.23-22.65,0-40.39.5-53.2,1.49-12.82.99-22.12,2.76-27.93,5.31-5.81,2.55-9.45,6.23-10.94,11.04-1.49,4.82-2.23,11.04-2.23,18.69h-40.78c0-15.29,2.09-27.61,6.26-36.95,4.17-9.34,11.29-16.42,21.34-21.24,10.05-4.81,23.82-8.07,41.31-9.77,17.48-1.7,39.54-2.55,66.16-2.55,28.6,0,51.64,1.84,69.13,5.52,17.48,3.68,30.79,10.3,39.93,19.86,9.13,9.56,15.29,22.9,18.48,40.03,3.19,17.13,4.78,39.22,4.78,66.26v117.66h-40.78v-16.78c-4.82,5.1-11.47,9.21-19.96,12.32-8.49,3.11-19.79,5.41-33.87,6.9-14.09,1.48-32.11,2.23-54.05,2.23ZM246.13,349.87c24.21,0,43.54-.28,57.98-.85,14.44-.56,25.24-2.12,32.39-4.67,7.15-2.55,11.86-6.65,14.12-12.32,2.26-5.66,3.4-13.59,3.4-23.78v-37.59l-107.89-1.28c-19.11-.28-34.51-.03-46.19.74-11.68.78-20.57,2.48-26.65,5.1-6.09,2.62-10.16,6.72-12.21,12.32-2.05,5.59-3.08,13.13-3.08,22.62s1.03,16.49,3.08,21.87c2.05,5.38,6.12,9.35,12.21,11.89,6.08,2.55,14.97,4.18,26.65,4.88,11.68.71,27.08,1.06,46.19,1.06Z"/>
  <path class="cls-2" d="M430,383v-31h31v31h-31Z"/>
</svg>